<svg xmlns="http://www.w3.org/2000/svg" viewBox="0 0 21.27 19.87"><defs><style>.cls-1,.cls-9{fill:#fb5845}.cls-2,.cls-7{fill:#78c17c}.cls-3,.cls-8{fill:#fb7f16}.cls-5{fill:#4d443c}.cls-6{fill:#f9b916}.cls-6,.cls-7,.cls-8,.cls-9{fill-rule:evenodd}.cls-10{fill:#fff}</style></defs><g id="Layer_2" data-name="Layer 2"><g id="Layer_1-2" data-name="Layer 1"><path class="cls-1" d="M13.46 6.36a.28.28 0 11-.57 0 7.77 7.77 0 01.52-2.28 11.34 11.34 0 00.66-2.82.29.29 0 010-.1l.1-.16a.28.28 0 01.37-.16.29.29 0 01.16.37l-.06.15A12 12 0 0114 4.27a7.53 7.53 0 00-.5 2.09"/><path class="cls-1" d="M13.7 6.43a.28.28 0 11-.56-.08l.06-.4c.16-1.1.56-3.73.56-4.34a.28.28 0 11.57 0c0 .64-.4 3.31-.56 4.42zm-.7-.32a.28.28 0 11-.6-.11l.06-.4c.16-1.1.56-3.73.56-4.34a.28.28 0 11.57 0c0 .64-.4 3.31-.56 4.42z"/><path class="cls-2" d="M10.6 4.64a.28.28 0 11-.6-.08c0-.3.1-.89.14-1.49s.07-1.12.07-1.47a.28.28 0 11.57 0c0 .35 0 .93-.07 1.51s-.1 1.22-.14 1.53"/><path class="cls-1" d="M11.85 5.71a.28.28 0 11-.56-.08c0-.3.1-.89.14-1.49s.07-1.12.07-1.47a.28.28 0 11.57 0c0 .35 0 .93-.07 1.51s-.1 1.22-.14 1.54"/><path class="cls-1" d="M12.2 5.52a.28.28 0 11-.56-.08c0-.3.1-.89.14-1.49s.07-1.12.07-1.47a.28.28 0 11.57 0c0 .35 0 .93-.07 1.51s-.1 1.22-.14 1.53"/><path class="cls-2" d="M10.9 5.53a.29.29 0 01-.19.35.28.28 0 01-.35-.2 8.5 8.5 0 01-.16-1.08c-.14-1.25-.35-3.16-.95-3.43A.29.29 0 019.1.79a.28.28 0 01.38-.14c.89.4 1.13 2.51 1.28 3.89a8.87 8.87 0 00.14 1"/><path class="cls-3" d="M9.16 1.6a.28.28 0 11-.57 0 2 2 0 01.14-.6 2.67 2.67 0 00.15-.66.29.29 0 010-.09.28.28 0 01.41-.25.29.29 0 01.16.37 3.27 3.27 0 01-.18.74 1.83 1.83 0 00-.11.44"/><path class="cls-2" d="M12.35 6.26a.28.28 0 11-.56-.08l.06-.4c.16-1.1.56-3.73.56-4.34a.28.28 0 11.57 0c0 .64-.4 3.31-.56 4.42zM11.1 4.83a.28.28 0 11-.56-.08c.06-.41.13-1.21.19-2s.09-1.52.09-2a.28.28 0 11.57 0c0 .47 0 1.25-.09 2s-.13 1.64-.19 2.06"/><path d="M15.39 5.16c.45-.44 1.38-3.41 2.37-3.48l.16-.09" fill="none" stroke="#fb7f16" stroke-linecap="round" stroke-linejoin="round" stroke-width=".57"/><path class="cls-2" d="M10.5 5.81a.28.28 0 11-.57 0 8 8 0 00-.79-3 2.15 2.15 0 00-1.36-1.24.29.29 0 01.1-.57 2.68 2.68 0 011.76 1.55 8.68 8.68 0 01.86 3.26"/><path class="cls-3" d="M11.54 5.86a.28.28 0 01-.35.2.29.29 0 01-.19-.36 6.52 6.52 0 00.13-1.7c0-1.38 0-2.75 1.42-3.06l.08-.07a.28.28 0 01.4 0 .29.29 0 010 .4.56.56 0 01-.28.17c-1 .21-1 1.35-1 2.5a6.9 6.9 0 01-.16 1.85"/><path class="cls-1" d="M14.15 5.55a.28.28 0 11-.57 0 7.76 7.76 0 01.52-2.28 11.34 11.34 0 00.67-2.81.29.29 0 010-.1l.08-.19a.28.28 0 01.38-.17.29.29 0 01.16.37l-.06.15a12 12 0 01-.69 2.92 7.54 7.54 0 00-.5 2.09"/><path class="cls-3" d="M10.56 6a.29.29 0 01-.19.35.28.28 0 01-.35-.2 8.49 8.49 0 01-.16-1.09c-.14-1.25-.35-3.16-.95-3.43a.29.29 0 01-.14-.38.28.28 0 01.37-.15c.89.4 1.13 2.51 1.28 3.89a8.74 8.74 0 00.14 1"/><path class="cls-1" d="M12.65 5.58a.28.28 0 11-.56-.08c0-.3.1-.89.14-1.49s.07-1.12.07-1.47a.28.28 0 11.57 0c0 .35 0 .93-.07 1.51s-.1 1.22-.14 1.54"/><path class="cls-3" d="M10.76 7.17a.28.28 0 11-.56-.08c.17-1.15-.69-2.85-1.39-4.25a6.32 6.32 0 01-.9-2.36.28.28 0 11.57 0 6.63 6.63 0 00.84 2.06C10 4 11 5.84 10.76 7.17"/><path class="cls-2" d="M16.51 3.19a.28.28 0 01-.25-.51 4.52 4.52 0 000-.54A2.71 2.71 0 0116.47 1 .28.28 0 1117 1v.09a.28.28 0 01-.08.22 2.32 2.32 0 00-.13.84c0 .46-.06.89-.32 1"/><path class="cls-1" d="M15.62 4.45a.28.28 0 11-.25-.51 4.68 4.68 0 000-.54 2.71 2.71 0 01.21-1.1.28.28 0 11.57 0v.09a.29.29 0 01-.08.22 2.33 2.33 0 00-.13.84c0 .46-.05.89-.32 1"/><path class="cls-3" d="M16.1 3.59a.28.28 0 11-.25-.51 4.75 4.75 0 000-.54 2.72 2.72 0 01.21-1.1.28.28 0 01.57 0v.09a.29.29 0 01-.08.22 2.33 2.33 0 00-.13.84c0 .46-.06.88-.32 1m-2.78 2.95a.28.28 0 11-.56-.08l.06-.4c.16-1.1.56-3.73.56-4.34a.28.28 0 11.57 0c0 .64-.4 3.31-.56 4.42zm1.58-2.41a.28.28 0 11-.25-.51 4.7 4.7 0 000-.54A2.71 2.71 0 0114.86 2a.28.28 0 11.57 0v.09a.28.28 0 01-.08.22 2.34 2.34 0 00-.13.84c0 .46-.06.89-.32 1"/><path class="cls-2" d="M15.28 4.46a.28.28 0 11-.28-.51 4.72 4.72 0 000-.54 2.71 2.71 0 01.21-1.1.28.28 0 11.57 0v.09a.28.28 0 01-.08.22 2.33 2.33 0 00-.13.84c0 .46-.05.89-.32 1"/><path class="cls-5" d="M15 19.85a.29.29 0 010-.57h4.74a.29.29 0 010 .57zm2.26-1.21a.29.29 0 010-.57h1.51a.29.29 0 010 .57z"/><path class="cls-5" d="M16.32 19.33a.29.29 0 110-.57H21a.29.29 0 110 .57z"/><path class="cls-6" d="M15.64 19.56h-5.42c-2.68 0-2.2.43-2.11-1.9.16-4.3.14-8 0-12.28C8 3.46 7.66 3.83 9.89 3.83h6c2 0 1.64-.31 1.57 1.41-.18 4.25-.13 8.07 0 12.32.06 2.14.39 2-1.83 2"/><path class="cls-5" d="M10.22 19.27H16c.73 0 1.07 0 1.16-.09s.06-.35 0-.87v-.74c-.05-2.12-.09-4.14-.09-6.16s0-4 .12-6.17V4.11a2.84 2.84 0 00-.59 0H9.89L9 4.1a2.44 2.44 0 00-.66 0 3.72 3.72 0 000 .53v.72c.08 2.15.12 4.15.13 6.15s0 4-.11 6.15c0 .4 0 .7-.06.94a2.48 2.48 0 000 .66 2.44 2.44 0 00.84 0h1.07m5.42.57H9.17c-.67 0-1 0-1.23-.17-.22-.22-.2-.52-.15-1.11 0-.25 0-.56.06-.92.08-2.15.12-4.14.11-6.13s0-4-.13-6.13v-.7c0-.54-.06-.81.17-1s.48-.16 1-.14h7.7c.53 0 .79 0 1 .14s.19.43.15.91v.66c-.09 2.12-.12 4.14-.12 6.15s0 4 .09 6.15v.73c0 .68.05 1-.18 1.29s-.68.28-1.58.27z"/><path class="cls-6" d="M2.15 11.67a34.54 34.54 0 018.46 0c1.89.23 3 7.92.51 7.92H1.78c-2.43 0-1.6-7.68.38-7.92"/><path class="cls-5" d="M6.32 11.69a34.32 34.32 0 00-4.13.26C1.52 12 1 13.26.73 14.7a10.11 10.11 0 00-.16 1.94 5.86 5.86 0 00.24 1.67c.19.6.51 1 1 1h9.35c.45 0 .76-.36.94-.9a5.33 5.33 0 00.22-1.61 10.07 10.07 0 00-.18-1.91c-.29-1.51-.87-2.84-1.53-2.92a34.53 34.53 0 00-4.26-.26m-4.2-.31a35 35 0 018.53 0c.94.12 1.69 1.65 2 3.39a10.62 10.62 0 01.19 2 5.89 5.89 0 01-.25 1.79c-.26.78-.74 1.3-1.48 1.3H1.78C1 19.87.54 19.32.27 18.48A6.42 6.42 0 010 16.64a10.66 10.66 0 01.17-2c.3-1.7 1-3.14 1.95-3.26z"/><path class="cls-7" d="M4 16a.71.71 0 11-.71.71A.71.71 0 014 16m-.15-2.27a.71.71 0 11-.71.71.71.71 0 01.71-.71m2.54-.91a.71.71 0 11-.71.71.71.71 0 01.71-.71m2.2.63a.71.71 0 11-.71.71.71.71 0 01.71-.71m-3.41.91a.71.71 0 11-.71.71.71.71 0 01.71-.71m1.99.79a1.1 1.1 0 11-1.1 1.1 1.1 1.1 0 011.1-1.1m2.15 1.28a.71.71 0 11-.71.71.71.71 0 01.71-.71m.57-1.53a.71.71 0 11-.71.71.71.71 0 01.71-.71"/><path class="cls-7" d="M5.18 15.43A1.22 1.22 0 114 16.65a1.22 1.22 0 011.22-1.22M3 14.59a.71.71 0 11-.71.71.71.71 0 01.71-.71m-.42 1.86a.71.71 0 11-.71.71.71.71 0 01.71-.71m5.5.18a.71.71 0 11-.71.71.71.71 0 01.71-.71M7 14.09a.71.71 0 11-.71.71.71.71 0 01.71-.71"/><path class="cls-7" d="M5.54 13a1.2 1.2 0 11-1.2 1.2 1.2 1.2 0 011.2-1.2"/><path class="cls-8" d="M6.4 16.61a.84.84 0 11-.84.84.84.84 0 01.84-.84m-2.85.2a.71.71 0 11-.71.71.71.71 0 01.71-.71m-.94-3.18a.71.71 0 11-.71.71.71.71 0 01.71-.71"/><path class="cls-8" d="M3.75 12.82c.54 0 1 .32 1 .71s-.44.71-1 .71-1-.32-1-.71.44-.71 1-.71m4.15 1.75a.71.71 0 11-.71.71.71.71 0 01.71-.71"/><path class="cls-8" d="M8.5 15.12a1 1 0 11-1 1 1 1 0 011-1m1.36-1.55a.71.71 0 11-.71.71.71.71 0 01.71-.71m-2.21-.51a.83.83 0 11-.83.83.83.83 0 01.83-.83"/><path class="cls-8" d="M9.41 15a.71.71 0 11-.71.71.71.71 0 01.71-.71m-5.33-.44a.81.81 0 11-.81.81.81.81 0 01.81-.81"/><path class="cls-8" d="M8.94 14.35a.71.71 0 11-.71.71.71.71 0 01.71-.71"/><path class="cls-9" d="M7.6 16.87a.71.71 0 11-.71.71.71.71 0 01.71-.71m-3.02-.1a.71.71 0 11-.71.71.71.71 0 01.71-.71m-1.2-1.04a.71.71 0 11-.71.71.71.71 0 01.71-.71m1.53-2.62a.71.71 0 11-.71.71.71.71 0 01.71-.71"/><path class="cls-9" d="M6.21 13.37a.71.71 0 11-.71.71.71.71 0 01.71-.71"/><path class="cls-8" d="M8.93 12.73a.71.71 0 11-.71.71.71.71 0 01.71-.71m1.2 3.06a.71.71 0 11-.71.71.71.71 0 01.71-.71"/><path class="cls-9" d="M6.17 14.52a1 1 0 11-1 1 1 1 0 011-1"/><path class="cls-9" d="M5.13 15.07a.71.71 0 11-.71.71.71.71 0 01.71-.71"/><path class="cls-8" d="M10.07 16.76a.71.71 0 11-.71.71.71.71 0 01.71-.71"/><path class="cls-10" d="M6.41 13.25a31.35 31.35 0 00-3.41.16c-.36 0-.65.77-.8 1.61a6.14 6.14 0 00-.1 1.18 3.52 3.52 0 00.14 1c.11.32.27.54.49.54h7.45c.22 0 .38-.19.48-.48a3.17 3.17 0 00.13-1 6.09 6.09 0 00-.11-1.16c-.17-.89-.49-1.67-.85-1.72a30.77 30.77 0 00-3.4-.16m-3.5-.41a31.82 31.82 0 013.5-.16 31.27 31.27 0 013.47.16c.63.08 1.13 1.07 1.34 2.18a6.69 6.69 0 01.12 1.27 3.75 3.75 0 01-.16 1.14 1.08 1.08 0 01-1 .88H2.71c-.52 0-.85-.37-1-.93a4.09 4.09 0 01-.17-1.17 6.7 6.7 0 01.11-1.29c.16-1.04.62-1.97 1.26-2.05z"/><path class="cls-5" d="M15.39 16.31a.29.29 0 11-.56-.12 30.7 30.7 0 00.23-7C15 8.34 15 7.55 15 6.92a.29.29 0 11.57 0c0 .67 0 1.43.06 2.25a31.1 31.1 0 01-.24 7.14"/><path class="cls-10" d="M10.08 9.12a.29.29 0 01-.57 0v-1a8.21 8.21 0 00-.23-2.85.29.29 0 01.18-.27h2.12a.29.29 0 110 .57H9.93a10.25 10.25 0 01.15 2.67v.92"/></g></g></svg>